<?xml version="1.0" encoding="UTF-8" standalone="no"?>
<!DOCTYPE svg PUBLIC "-//W3C//DTD SVG 1.1//EN" "http://www.w3.org/Graphics/SVG/1.1/DTD/svg11.dtd"><svg width="100%" height="100%" viewBox="0 0 964 232" version="1.1" xmlns="http://www.w3.org/2000/svg" xmlns:xlink="http://www.w3.org/1999/xlink" xml:space="preserve" xmlns:serif="http://www.serif.com/" style="fill-rule:evenodd;clip-rule:evenodd;stroke-linejoin:round;stroke-miterlimit:2;">
  <g>
    <path d="M339.436,206.05l-25.936,25.95l-176.735,-0l-0,-13.21l-13.203,13.21l-123.562,-0l-0,-206.05l25.936,-25.95l0,206.05l123.563,-0l-0,-41.21l-12.734,-0l-0,-110.889l-13.203,13.209l-56.438,0l-0,-25.95l82.375,-0l-0,-28l13.202,-13.21l0,206.05l176.735,-0Zm-53.172,-194.058l11.984,-11.992l0,164.84l-25.936,-0l0,-109.671l-11.985,11.991l-56.438,0l-0,-25.95l82.375,-0l-0,-29.218Zm135.547,-0l11.985,-11.992l-0,164.84l-11.985,-0l-0,-152.848Zm68.423,26.157l0,-12.199l25.937,-25.95l-0,103.025l-25.937,-64.876Zm130.516,12.975l5.032,-25.174l25.936,-25.95l-20.594,103.025l-10.374,-51.901Zm207.703,-39.132l11.985,-11.992l-0,123.63l82.375,-0l-0,41.21l-25.937,-0.058l0,-15.202l-68.423,0l-0,-137.588Zm135.547,29.218l-25.936,25.95l-56.439,0l0,-25.95l82.375,-0Zm-0,164.84l-25.936,25.95l-176.735,-0l-0,-41.21l-15.251,0l-0,-25.95l41.187,-0l0,41.21l176.735,-0Zm-217.922,-0l-25.936,25.95l-41.188,-0l0,-162.205l5.714,-28.585l20.222,-0l0,164.84l41.188,-0Zm-94.36,-0l-25.936,25.95l-41.188,-0l-27.236,-136.255l0,-54.535l20.223,-0l32.95,164.84l41.187,-0Zm-94.36,-0l-25.936,25.95l-41.188,-0l-15.251,-38.149l0,-90.826l41.188,103.025l41.187,-0Zm-82.375,-0l-25.936,25.95l-94.36,-0l0,-41.21l-15.251,0l-0,-25.95l41.187,-0l0,41.21l94.36,-0Zm-135.547,-138.89l-0,-25.95l41.187,-0l0,82.42l-25.936,-0l0,-56.47l-15.251,0Zm406.642,0l-0,-25.95l41.187,-0l0,82.42l-25.936,-0l-0,-56.47l-15.251,0Z" style="fill:black;" />
    <path d="M474.983,206.05l-94.36,-0l0,-41.21l-41.187,-0l-0,41.21l-176.735,-0l0,-206.05l123.563,0l-0,41.21l-82.375,-0l-0,123.63l94.359,-0l0,-164.84l123.563,0l-0,164.84l11.985,-0l-0,-164.84l41.187,0l41.188,103.025l-0,-103.025l94.36,0l20.593,103.025l20.594,-103.025l176.735,0l-0,164.631l94.36,0.209l-0,-41.21l-82.375,-0l-0,-123.63l123.562,0l-0,41.21l-82.375,-0l0,41.21l82.375,-0l-0,123.63l-176.735,-0l0,-41.21l-41.187,-0l-0,41.21l-41.188,-0l0,-164.84l-20.222,-0l-32.95,164.84l-41.187,-0l-32.95,-164.84l-20.223,-0l0,164.84l-41.187,-0l-41.188,-103.025l0,103.025Zm-94.36,-164.84l-41.187,-0l-0,82.42l41.187,-0l0,-82.42Zm406.642,-0l-41.187,-0l-0,82.42l41.187,-0l0,-82.42Zm-761.329,164.84l0,-206.05l123.563,0l-0,41.21l-82.375,-0l-0,123.63l82.375,-0l-0,41.21l-123.563,-0Z" style="fill:#fa0;" />
  </g>
</svg>